<?xml version="1.0" encoding="utf-8"?>
<!-- Generator: Adobe Illustrator 15.0.0, SVG Export Plug-In . SVG Version: 6.00 Build 0)  -->
<!DOCTYPE svg PUBLIC "-//W3C//DTD SVG 1.1//EN" "http://www.w3.org/Graphics/SVG/1.1/DTD/svg11.dtd">
<svg version="1.1" id="Layer_1" xmlns="http://www.w3.org/2000/svg" xmlns:xlink="http://www.w3.org/1999/xlink" x="0px" y="0px"
	  viewBox="54.902 -0.371 190.283 300.371"
	 enable-background="new 54.902 -0.371 190.283 300.371" xml:space="preserve">
<g>
	<g>
		<g>
			<path id="SVGID_1_" fill="#FFFFFF" d="M141.665,37.156c-18.403,0.117-36.044,6.477-50.194,17.591
				c20.829-13.246,47.058-17.75,72.578-10.146c27.319,8.146,47.731,28.332,57.192,53.035c-7.219-26.426-27.444-48.651-55.633-57.053
				c-7.627-2.275-15.33-3.383-22.908-3.429L141.665,37.156L141.665,37.156z"/>
		</g>
	</g>
	<g>
		<g>
			<path id="SVGID_3_" fill="#FFFFFF" d="M83.524,40.497c24.825-15.79,56.09-21.162,86.514-12.092
				c32.552,9.7,56.893,33.772,68.183,63.226v-0.017c-8.619-31.494-32.731-57.982-66.326-67.998
				c-9.305-2.773-18.701-4.093-27.934-4.093C121.799,19.522,100.551,27.124,83.524,40.497"/>
		</g>
	</g>
	<g>
		<g>
			<path id="SVGID_5_" fill="#FFFFFF" d="M83.524,21.555c25.944-16.505,58.62-22.121,90.409-12.643
				c34.02,10.138,59.449,35.298,71.252,66.076c-8.989-32.917-34.195-60.617-69.312-71.082c-9.717-2.896-19.527-4.277-29.175-4.277
				C123.54-0.372,101.318,7.576,83.524,21.555"/>
		</g>
		<g>
			<g>
				<defs>
					<path id="SVGID_2_" d="M83.524,21.555c25.944-16.505,58.62-22.121,90.409-12.643c34.02,10.138,59.449,35.298,71.252,66.076
						c-8.989-32.917-34.195-60.617-69.312-71.082c-9.717-2.896-19.527-4.277-29.175-4.277C123.54-0.372,101.318,7.576,83.524,21.555
						"/>
				</defs>
				<clipPath id="SVGID_4_">
					<use xlink:href="#SVGID_2_"  overflow="visible"/>
				</clipPath>
				<polygon clip-path="url(#SVGID_4_)" fill="#FFFFFF" points="231.996,119.236 265.865,5.6 96.707,-44.811 62.848,68.829 				"/>
			</g>
		</g>
	</g>
	<g>
		<g>
			<path fill="#FFFFFF" d="M159.824,177.779c0.041,0,0.092,0,0.139,0c4.097,0,9.65,2.346,13.926,10.008
				c2.196-1.103,5.423-2.032,8.902-2.032c3.969,0,9.105,1.739,12.65,8.624c6.895-6.947,12.59-15.077,16.675-24.246l-36.336-5.537
				C171.549,170.328,169.074,177.779,159.824,177.779z"/>
			<path fill="#FFFFFF" d="M99.461,205.01c0.257-0.246,2.033-1.697,5.408-1.697c3.234,0,6.883,1.314,10.855,3.922l0.166,0.109
				c0.207,0.167,4.454,3.407,8.65,7.537l0.229-31.709c-23.141-6.104-38.646-28.631-35.338-52.963
				c3.584-26.316,27.82-44.753,54.147-41.176c18.021,2.455,32.339,14.603,38.43,30.458l36.344,4.948
				c-5.287-35.166-33.16-64.139-70.182-69.167c-44.972-6.124-86.39,25.374-92.505,70.346c-4.702,34.484,12.743,66.86,41.415,82.855
				C97.538,207.187,98.299,205.994,99.461,205.01z"/>
		</g>
		<path fill="#FFFFFF" d="M202.9,268.766c5.625-11.355,7.763-23.306,7.783-23.436c2.352-10.549,2.394-26.932,2.394-27.101
			c0.312-10.96-2.97-14.373-3.009-14.414c-2.263-2.372-4.679-3.474-7.506-3.474c-3.635,0-6.607,1.88-6.641,1.894l-3.025,1.956
			l-1.16-3.407c-1.924-5.716-4.842-8.488-8.943-8.488c-4.283,0-8.385,2.929-8.43,2.954l-2.818,2.047l-1.406-3.186
			c-2.553-5.871-5.977-8.841-10.173-8.841c-4.302,0-8.125,2.97-8.162,3.009l-4.593,3.613l0.288-42.238
			c0.03-3.318-0.663-5.631-0.899-6.337c-1.845-2.554-6.018-2.942-8.379-2.942c-1.786,0-3.091,0.214-3.104,0.22
			c-4.702,0.907-4.877,4.939-4.832,5.47l0.273,71.867c-0.013,3.369-2.338,4.873-4.433,4.873c-1.26,0-2.416-0.531-2.71-0.699
			l-0.437-0.215l-0.322-0.316c-4.16-4.485-9.39-8.561-10.077-9.098c-3.746-2.424-6.248-2.942-7.693-2.942
			c-1.244,0-1.806,0.383-1.826,0.396c-2.182,1.865-0.062,7.221,0.634,8.553l0.188,0.459c1.775,5.685,14.564,24.348,19.343,31.057
			c3.689,5.182,12.339,16.006,12.423,16.108c3.764,4.777,6.311,14.679,6.591,15.788l0.055,0.258
			c0.849,5.652,1.119,12.818,1.089,16.021c-0.007,0.352,0.719,0.615,1.034,0.713l50.531-0.032c0.091-0.084,0.187-0.227,0.271-0.368
			c-0.115-5.183,1.169-11.923,1.375-12.973C197.34,278.859,202.667,269.171,202.9,268.766z"/>
	</g>
</g>
</svg>
