<?xml version="1.0" encoding="utf-8"?>
<!-- Generator: Adobe Illustrator 15.0.0, SVG Export Plug-In . SVG Version: 6.00 Build 0)  -->
<!DOCTYPE svg PUBLIC "-//W3C//DTD SVG 1.1//EN" "http://www.w3.org/Graphics/SVG/1.1/DTD/svg11.dtd">
<svg version="1.1" id="Layer_1" xmlns="http://www.w3.org/2000/svg" xmlns:xlink="http://www.w3.org/1999/xlink" x="0px" y="0px"
	 width="" height="" viewBox="0 0 194.736 300" enable-background="new 0 0 194.736 300" xml:space="preserve">
<g>
	<g>
		<defs>
			<path id="SVGID_1_" d="M89.022,37.202c-18.426,0.117-36.089,6.485-50.256,17.613c20.854-13.262,47.116-17.772,72.666-10.158
				c27.353,8.156,47.791,28.367,57.263,53.101c-7.227-26.459-27.478-48.711-55.702-57.124c-7.636-2.278-15.348-3.387-22.936-3.433
				H89.022z"/>
		</defs>
		<use xlink:href="#SVGID_1_"  overflow="visible" fill="#FFFFFF"/>
		<clipPath id="SVGID_2_">
			<use xlink:href="#SVGID_1_"  overflow="visible"/>
		</clipPath>

			<rect x="56.089" y="-3.529" transform="matrix(-0.2856 0.9584 -0.9584 -0.2856 197.9552 -12.7664)" clip-path="url(#SVGID_2_)" fill="#FFFFFF" width="95.294" height="141.863"/>
	</g>
	<g>
		<defs>
			<path id="SVGID_3_" d="M30.81,40.547c24.856-15.809,56.16-21.188,86.621-12.107c32.592,9.712,56.963,33.814,68.266,63.304v-0.017
				c-8.63-31.533-32.772-58.054-66.409-68.082c-9.316-2.777-18.723-4.098-27.968-4.098C69.132,19.547,47.858,27.158,30.81,40.547"/>
		</defs>
		<use xlink:href="#SVGID_3_"  overflow="visible" fill="#FFFFFF"/>
		<clipPath id="SVGID_4_">
			<use xlink:href="#SVGID_3_"  overflow="visible"/>
		</clipPath>

			<rect x="51.448" y="-29" transform="matrix(-0.2856 0.9584 -0.9584 -0.2856 192.3985 -32.3269)" clip-path="url(#SVGID_4_)" fill="#FFFFFF" width="113.602" height="169.099"/>
	</g>
	<g>
		<defs>
			<path id="SVGID_5_" d="M30.81,21.582C56.786,5.056,89.503-0.566,121.331,8.923c34.063,10.151,59.524,35.342,71.34,66.158
				c-9-32.958-34.239-60.692-69.399-71.17c-9.728-2.9-19.551-4.282-29.211-4.282C70.875-0.372,48.626,7.586,30.81,21.582"/>
		</defs>
		<use xlink:href="#SVGID_5_"  overflow="visible" fill="#FFFFFF"/>
		<clipPath id="SVGID_6_">
			<use xlink:href="#SVGID_5_"  overflow="visible"/>
		</clipPath>
		<polygon clip-path="url(#SVGID_6_)" fill="#FFFFFF" points="179.466,119.384 213.376,5.607 44.009,-44.866 10.108,68.914 		"/>
	</g>
	<g>
		<g>
			<path fill="#FFFFFF" d="M107.204,178c0.041,0,0.092,0,0.139,0c4.101,0,9.661,2.348,13.943,10.019
				c2.199-1.104,5.43-2.034,8.914-2.034c3.972,0,9.116,1.742,12.665,8.633c6.904-6.955,12.607-15.095,16.696-24.275l-36.381-5.545
				C118.943,170.539,116.466,178,107.204,178z"/>
			<path fill="#FFFFFF" d="M46.767,205.264c0.257-0.246,2.035-1.7,5.415-1.7c3.238,0,6.891,1.317,10.868,3.926l0.166,0.11
				c0.207,0.168,4.459,3.412,8.661,7.546l0.229-31.748c-23.17-6.111-38.694-28.665-35.382-53.029
				c3.588-26.349,27.854-44.809,54.214-41.227c18.043,2.458,32.379,14.621,38.478,30.495l36.388,4.954
				c-5.294-35.209-33.201-64.218-70.269-69.253C50.508,49.206,9.038,80.743,2.916,125.771
				c-4.708,34.527,12.759,66.943,41.466,82.957C44.841,207.443,45.603,206.25,46.767,205.264z"/>
		</g>
		<path fill="#FFFFFF" d="M150.334,269.097c5.632-11.368,7.773-23.333,7.793-23.463c2.354-10.562,2.395-26.965,2.395-27.134
			c0.312-10.972-2.973-14.391-3.011-14.431c-2.266-2.375-4.685-3.478-7.515-3.478c-3.64,0-6.617,1.882-6.65,1.895l-3.029,1.96
			l-1.162-3.413c-1.926-5.723-4.847-8.499-8.954-8.499c-4.289,0-8.396,2.933-8.44,2.958l-2.823,2.05l-1.408-3.191
			c-2.557-5.879-5.984-8.851-10.186-8.851c-4.306,0-8.134,2.972-8.172,3.011l-4.598,3.62l0.288-42.291
			c0.03-3.322-0.664-5.638-0.9-6.345c-1.847-2.557-6.025-2.946-8.39-2.946c-1.788,0-3.095,0.214-3.108,0.22
			c-4.708,0.908-4.883,4.945-4.838,5.477l1.194,0.72v0.11l-0.921,71.125c-0.013,3.374-2.341,4.88-4.438,4.88
			c-1.262,0-2.419-0.532-2.714-0.701l-0.437-0.214l-0.322-0.318c-4.165-4.49-9.402-8.571-10.089-9.109
			c-3.751-2.427-6.256-2.946-7.703-2.946c-1.245,0-1.808,0.383-1.828,0.396c-2.185,1.868-0.062,7.229,0.635,8.564l0.188,0.46
			c1.777,5.691,14.582,24.377,19.367,31.094c3.694,5.189,12.354,16.026,12.438,16.129c3.769,4.782,6.319,14.697,6.599,15.807
			l0.055,0.258c0.85,5.659,1.12,12.834,1.09,16.04c-0.007,0.352,0.72,0.616,1.035,0.714l50.594-0.033
			c0.091-0.084,0.187-0.227,0.271-0.369c-0.116-5.189,1.169-11.938,1.376-12.989C144.767,279.205,150.101,269.504,150.334,269.097z"
			/>
	</g>
</g>
</svg>
