<?xml version="1.0" encoding="utf-8"?>
<!-- Generator: Adobe Illustrator 15.0.0, SVG Export Plug-In . SVG Version: 6.00 Build 0)  -->
<!DOCTYPE svg PUBLIC "-//W3C//DTD SVG 1.1//EN" "http://www.w3.org/Graphics/SVG/1.1/DTD/svg11.dtd">
<svg version="1.1" id="Layer_1" xmlns="http://www.w3.org/2000/svg" xmlns:xlink="http://www.w3.org/1999/xlink" x="0px" y="0px"
	 width="" height="" viewBox="0 0 169.416 169.427" enable-background="new 0 0 169.416 169.427"
	 xml:space="preserve">
<path fill="#FFFFFF" d="M84.732,169.278c-46.593,0-84.5-37.906-84.5-84.5c0-46.593,37.907-84.5,84.5-84.5
	c46.594,0,84.5,37.907,84.5,84.5C169.232,131.372,131.326,169.278,84.732,169.278z M84.732,10.278c-41.08,0-74.5,33.42-74.5,74.5
	c0,41.079,33.42,74.5,74.5,74.5c41.079,0,74.5-33.421,74.5-74.5C159.232,43.698,125.811,10.278,84.732,10.278z"/>
<polygon fill="#FFFFFF" points="63.5,47.868 127.429,84.778 63.5,121.688 "/>
</svg>
